<svg width="11" height="30" viewBox="0 0 11 30" fill="none" xmlns="http://www.w3.org/2000/svg">
<path d="M0.181641 29.4862C0.181641 29.5296 0.181641 29.5731 0.181641 29.6166H2.22766C2.22766 29.5731 2.22766 29.4862 2.22766 29.4427C2.22766 29.3992 2.22766 29.3557 2.22766 29.3122C2.22766 28.6164 2.40179 27.964 2.40179 27.7031C2.92418 23.7455 5.53612 22.0928 5.57965 22.0494C5.75378 22.2233 8.27866 24.2673 8.75751 27.7466C8.75751 28.0075 8.93164 28.6598 8.93164 29.3557C8.93164 29.3992 8.93164 29.4427 8.93164 29.4862C8.93164 29.5296 8.93164 29.5731 8.93164 29.5731H10.9777C10.9777 29.5296 10.9777 29.4862 10.9777 29.4427C10.9777 25.9635 9.49756 23.528 8.10453 21.9624H8.14806C6.92915 19.44 6.71149 16.5696 6.84209 13.7862C6.97269 11.0899 7.05975 7.61066 7.14682 4.91428C7.19035 3.43562 6.84209 2.08743 5.84085 0.913195C5.79731 0.826215 5.57965 0.652255 5.53612 0.608765C5.53612 0.608765 5.27492 0.826215 5.23139 0.913195C4.23015 2.08743 3.88189 3.47911 3.92542 4.91428C4.01249 7.61066 4.09955 11.0899 4.23015 13.7862C4.36075 16.5696 4.23015 19.44 2.96771 21.9624C1.61821 23.528 0.181641 25.9635 0.181641 29.4862Z" fill="black"/>
</svg>
