<svg width="230" height="363" viewBox="0 0 230 363" fill="none" xmlns="http://www.w3.org/2000/svg">
<path d="M103.103 350.523C83.2759 336.163 68.653 314.741 63.944 289.788H0V27.3074C34.4504 43.5506 58.9871 79.5681 61.9612 116.763L71.6271 190.446L66.9181 189.739C56.5086 189.739 47.5862 198.92 47.5862 208.101C47.5862 216.576 54.5259 223.874 63.4483 225.757L75.097 228.346C94.4289 193.741 105.334 159.842 105.334 126.414C105.334 96.2821 101.121 66.3852 100.625 35.7821C100.625 22.1284 106.078 9.65175 115 0C123.922 9.88716 129.375 22.1284 129.375 35.7821C129.375 66.3852 124.666 96.5175 124.666 126.414C124.666 159.607 135.571 193.741 154.903 228.346L166.552 225.757C175.474 223.874 182.414 216.576 182.414 208.101C182.414 198.92 173.491 189.739 163.082 189.739L158.373 190.446L168.039 116.763C172.748 79.5681 195.55 43.5506 230 27.3074V289.788H166.056C161.347 314.506 147.468 336.87 126.897 350.523C122.187 353.819 117.974 357.821 115.248 363C112.026 357.586 107.813 353.819 103.103 350.523ZM30.2371 199.156C32.9634 189.268 40.6465 180.794 50.0646 175.615L42.3815 114.879C39.6552 96.0467 31.4763 79.0973 19.084 65.2082V198.92H30.2371V199.156ZM62.7047 271.426C62.7047 262.245 64.1918 253.77 66.1746 245.296L57.2521 243.412C44.1164 239.41 33.9547 229.759 30.4849 217.282H19.5797V271.426H62.7047ZM105.086 271.426C105.086 260.362 96.1638 250.475 84.5151 249.298C82.5323 256.36 81.0452 263.658 81.0452 271.426H105.086ZM105.086 289.788H83.7716C87.2414 304.148 94.6767 317.095 105.086 328.395V289.788ZM135.323 233.054C127.144 218.695 119.461 203.628 114.752 188.091C110.043 203.864 102.36 218.695 94.181 233.054C102.36 234.938 109.3 240.117 114.752 246.002C120.205 240.117 127.144 234.938 135.323 233.054ZM148.459 271.426C148.459 263.658 146.972 256.36 144.989 249.298C133.341 250.71 124.418 260.362 124.418 271.426H148.459ZM145.733 289.788H124.418V328.395C134.828 317.095 142.263 304.148 145.733 289.788ZM210.42 271.426V217.282H199.515C196.045 229.759 185.884 239.41 172.748 243.412L163.825 245.296C165.808 253.77 167.295 262.245 167.295 271.426H210.42ZM210.42 199.156V65.4436C198.028 79.0973 189.106 96.0467 187.123 115.115L179.44 175.85C189.106 181.029 196.541 189.504 199.267 199.391H210.42V199.156Z" fill="black"/>
</svg>
