<svg width="11" height="30" viewBox="0 0 11 30" fill="none" xmlns="http://www.w3.org/2000/svg">
<path d="M0.181641 29.5168C0.181641 29.5603 0.181641 29.6039 0.181641 29.6474H2.22766C2.22766 29.6039 2.22766 29.5168 2.22766 29.4733C2.22766 29.4297 2.22766 29.3862 2.22766 29.3427C2.22766 28.6461 2.40179 27.9932 2.40179 27.732C2.92418 23.7705 5.53612 22.1163 5.57965 22.0728C5.75378 22.2469 8.27865 24.2929 8.75751 27.7755C8.75751 28.0367 8.93164 28.6897 8.93164 29.3862C8.93164 29.4297 8.93164 29.4733 8.93164 29.5168C8.93164 29.5603 8.93164 29.6039 8.93164 29.6039H10.9777C10.9777 29.5603 10.9777 29.5168 10.9777 29.4733C10.9777 25.9907 9.49756 23.5529 8.10452 21.9857H8.14806C6.92915 19.4608 6.71149 16.5877 6.84209 13.8016C6.97268 11.1026 7.05975 7.62003 7.14681 4.92103C7.19035 3.44093 6.84209 2.09143 5.84084 0.916054C5.79731 0.82899 5.57965 0.65486 5.53612 0.611328C5.53612 0.611328 5.27492 0.82899 5.23139 0.916054C4.23015 2.09143 3.88189 3.48446 3.92542 4.92103C4.01249 7.62003 4.09955 11.1026 4.23015 13.8016C4.36074 16.5877 4.23015 19.4608 2.96771 21.9857C1.61821 23.5529 0.181641 25.9907 0.181641 29.5168Z" fill="white"/>
</svg>
