<svg width="24" height="35" viewBox="0 0 24 35" fill="none" xmlns="http://www.w3.org/2000/svg">
<path d="M23.2027 0.485352C23.1592 0.485352 23.1157 0.485352 23.0721 0.485352C22.9851 0.528884 22.898 0.572416 22.8109 0.615949C21.592 1.356 20.5473 2.27018 19.6766 3.40202C17.8918 5.62217 17.0647 8.19057 16.8035 11.0202C16.6729 12.5003 16.4552 14.0239 16.2811 15.504C16.194 16.2441 16.107 17.0276 16.0634 17.7677C16.8035 17.6371 17.3694 17.8983 17.8918 18.3771C18.5883 18.9866 18.6754 19.9878 18.1094 20.6844C17.8483 20.9891 17.4565 21.2503 17.0647 21.4679C17.0647 21.4679 17.0211 21.4679 17.0211 21.5115C17.2388 22.0774 17.4129 22.7304 17.5 23.4269C17.5435 23.4269 17.5871 23.3834 17.6306 23.3834C19.1978 22.8174 20.1555 21.7727 20.4167 20.0749C20.6343 18.6383 19.8507 17.1582 18.5012 16.3747C18.2836 16.2441 18.1965 16.1135 18.24 15.8523C18.4577 14.198 18.6754 12.5438 18.806 10.846C18.9366 9.32241 19.3719 7.88585 20.0684 6.44928C20.3731 5.7963 21.2873 4.49033 21.2873 4.49033C21.2873 4.49033 21.2873 19.1172 21.2873 26.3871H13.3644V28.1284H14.6704C14.2786 30.0438 13.3209 31.3062 12.5808 32.0463V26.0824C12.7114 25.6035 13.0597 24.994 14.1045 24.6893C14.148 24.6893 14.1915 24.6458 14.2786 24.6458C14.2351 24.3846 14.1915 24.1234 14.1915 23.9928C14.148 23.601 14.0609 23.2092 13.9739 22.8174C13.7997 22.861 13.6256 22.9045 13.5386 22.948C12.8856 23.2092 11.8408 24.0363 11.6231 24.254C11.4055 24.0799 10.3607 23.2092 9.70771 22.948C9.62064 22.9045 9.44651 22.861 9.27239 22.8174C9.18532 23.1657 9.09826 23.5575 9.05472 23.9928C9.05472 24.1234 9.01119 24.3411 8.96766 24.6458C9.01119 24.6458 9.05472 24.6893 9.14179 24.6893C10.1866 24.994 10.5348 25.6035 10.6654 26.0824V32.0898C9.92537 31.3498 8.96766 30.0873 8.57587 28.2154H9.92537V26.4741H1.91542V4.53386C1.91542 4.53386 2.8296 5.83983 3.13433 6.49281C3.78731 7.88585 4.22264 9.32241 4.39677 10.8896C4.52736 12.5438 4.74502 14.198 4.96269 15.8958C5.00622 16.157 4.91915 16.2876 4.70149 16.4182C3.35199 17.2018 2.56841 18.6819 2.78607 20.1184C3.00373 21.7727 4.00497 22.861 5.57214 23.4269C5.61567 23.4269 5.6592 23.4704 5.70273 23.4704C5.83333 22.7739 5.96393 22.1644 6.18159 21.555C6.18159 21.555 6.18159 21.555 6.13806 21.555C5.74627 21.3373 5.35448 21.1197 5.09328 20.7714C4.52736 20.0749 4.61443 19.0737 5.31094 18.4642C5.7898 18.0289 6.39925 17.7242 7.1393 17.8547C7.05224 17.0712 7.0087 16.3311 6.92164 15.5911C6.74751 14.111 6.52985 12.5873 6.39925 11.1072C6.18159 8.27764 5.31094 5.70923 3.52612 3.48908C2.65547 2.35724 1.6107 1.44306 0.391791 0.703013C0.304726 0.659481 0.217662 0.615949 0.130597 0.572417C0.0870647 0.572417 0.0435323 0.572417 0 0.572417V28.259H6.44278C7.35696 32.8299 11.5796 34.963 11.5796 34.963C11.5796 34.963 15.8022 32.9605 16.8035 28.2154H23.2027V0.485352Z" fill="white"/>
</svg>
